# xmcd
#
# Track frame offsets: 
#        150
#        21589
#        33993
#        56367
#        71758
#        88958
#        108228
#        125968
#        146253
#        164626
#        190145
#        208900
#        228622
#        245141
#        273403
#        293096
#
# Disc length: 4113 seconds
#
# Revision: 0
# Processed by: cddbd v1.5.2PL0 Copyright (c) Steve Scherf et al.
# Submitted via: ExactAudioCopyFreeDBPlugin 1.0
#
DISCID=00100f10
DTITLE=群星 - stereo 女声  金嗓子
DYEAR=2009
DGENRE=Acid
TTITLE0=夜上海
TTITLE1=独上西楼
TTITLE2=画心
TTITLE3=迎接美好明天
TTITLE4=三年
TTITLE5=黄玫瑰
TTITLE6=诱惑我
TTITLE7=陪我看日出
TTITLE8=彩云之南
TTITLE9=十送红军
TTITLE10=分手以后就不要在回头
TTITLE11=爱的不是我 
TTITLE12=婉君
TTITLE13=挪威的森林
TTITLE14=天空
TTITLE15=迎接美好明天
EXTD=
EXTT0=
EXTT1=
EXTT2=
EXTT3=
EXTT4=
EXTT5=
EXTT6=
EXTT7=
EXTT8=
EXTT9=
EXTT10=
EXTT11=
EXTT12=
EXTT13=
EXTT14=
EXTT15=
PLAYORDER=
